<?xml version="1.0" encoding="utf-8"?>
<!-- Generator: Adobe Illustrator 25.4.1, SVG Export Plug-In . SVG Version: 6.00 Build 0)  -->
<svg version="1.1" id="Layer_1" xmlns="http://www.w3.org/2000/svg" xmlns:xlink="http://www.w3.org/1999/xlink" x="0px" y="0px"
	 viewBox="250 200 1500 1500" style="enable-background:new 0 0 2000 2000;" xml:space="preserve">
<style type="text/css">
	.st0{fill:#212529;}
	.st1{fill:#FFFFFF;}
	.st2{fill:#00BA00;}
</style>
<rect class="st0" x="250" y="200" width="1500" height="1500" rx="250" />
<g>
	<path class="st2" d="M1606.49,1112.26l-21.94-10.43l-7.93-8.87c-7.28-8.14-19.84-8.67-27.78-1.17l-11.76,11.12l-16.4-13.97
		c-7.31-6.23-18.08-6.17-25.32,0.15l-18.33,15.98l-13.8-13.44c-7.67-7.47-19.95-7.31-27.42,0.36l-13.44,13.8h-54.66l-17.98-16.18
		l51.7-34.34l13.52-2.12l11.55,2.85c10.6,2.61,21.28-4.04,23.59-14.71l3.44-15.81l21.43,2.28c9.55,1.02,18.41-5.11,20.82-14.41
		l6.11-23.54l18.97,3.31c10.55,1.84,20.6-5.22,22.44-15.77l3.21-18.41l42-27.89l-0.47-0.99l3.69-2.53l-3.75,2.41l-26.81-56.79
		l-31.29-10.43l-210.73,95.3l-58.75-23.38c-6.27-2.49-13.34-1.94-19.14,1.49l-23.94,14.17l-21.72-21.58
		c-11.5-11.43-30.09-11.37-41.52,0.13l-31.97,32.16l-32.49-32.28c-11.5-11.43-30.09-11.37-41.52,0.13l-31.97,32.16l-32.48-32.28
		c-11.5-11.43-30.09-11.37-41.52,0.13l-31.97,32.15l-32.48-32.28c-11.5-11.43-30.09-11.37-41.52,0.13l-31.97,32.15l-6.17-6.14
		l-26.31-26.14c-11.5-11.43-30.09-11.37-41.52,0.13l-31.97,32.16l-32.49-32.28c-11.5-11.43-30.09-11.37-41.52,0.13l-48.14,48.42
		l0.06,0.03c-2.78,0.67-5.53,1.41-8.25,2.2c-15.47-17.45-24.76-40.5-24.42-65.72c0.67-52.91,45.02-94.76,97.75-95.7l38.12,38.35
		c11.43,11.5,30.02,11.56,41.52,0.13l38.84-38.58h0.12l38.21,38.45c11.43,11.5,30.02,11.56,41.52,0.13l38.84-38.58h0.12l38.21,38.45
		c11.43,11.5,30.02,11.56,41.52,0.13l38.84-38.58h32.58c45.91,0,83.11-37.23,83.11-83.14H798.03H638.56
		c-129.51,0-239.46,102.76-245.05,230.78c3.3,68.22,37.66,128.26,89.22,166.31c36.53,26.96,81.67,42.92,130.55,42.92h27.27h75.61
		l-22.18,68.79l24.54,21.58h86.85l-27.51-21.04l78.34-69.33h190.72l-22.18,68.79l24.54,21.58h86.84l-27.51-21.04l78.34-69.33h23.61
		l0,0.01h388.38l-10.07-20.14L1606.49,1112.26z M1292.84,986l-62.08,12.31c-3.17,0.63-5.53-2.86-3.77-5.57l11.11-17.05
		c7.23-11.1,21.75-14.8,33.41-8.52l22.35,12.03C1296.87,980.84,1296.19,985.34,1292.84,986z"/>
</g>
</svg>
